<svg id="Capa_1" data-name="Capa 1" xmlns="http://www.w3.org/2000/svg" viewBox="0 0 512 512"><defs><style>.cls-1{fill:#42a721;}</style></defs><path class="cls-1" d="M504.5,242l-52.9-35.3-1.4-6.3,28-56.5a16.9,16.9,0,0,0-14-24.3l-63.2-4-4.6-4.7-4.1-63.1A16.3,16.3,0,0,0,384,34.3a16.9,16.9,0,0,0-15.9-.5l-56.6,28-6.4-1.7L270,7.5A16.9,16.9,0,0,0,256.3,0h-.6A16.9,16.9,0,0,0,242,7.5L206.9,60.2l-6.3,1.6-56.7-28a16.9,16.9,0,0,0-24.3,14l-4,63.2-4.6,4.6-63.2,4a16.9,16.9,0,0,0-14,24.3l28,56.7-1.6,6.3L7.5,242a16.8,16.8,0,0,0,0,28l52.7,35.2,1.6,6.3-28,56.6a16.9,16.9,0,0,0,14,24.3l63.2,4.1,4.6,4.6,4.1,63.1a16.7,16.7,0,0,0,8.3,13.6,16.9,16.9,0,0,0,15.9.5l56.6-28,6.4,1.6L242,504.6a17.3,17.3,0,0,0,14.1,7.4,16.9,16.9,0,0,0,14-7.5l35.1-52.6,6.4-1.7,56.6,28a16.8,16.8,0,0,0,24.3-14.1l4-63,4.7-4.7,63.1-4.1a16.8,16.8,0,0,0,14-24.2l-28-56.7,1.4-6.2L504.5,270a16.8,16.8,0,0,0,0-28ZM379.2,212.3l-113.6,118-35.5,35.5a16.7,16.7,0,0,1-23.6,0l-35.6-35.5-52.5-52.6a16.7,16.7,0,0,1,0-23.6L142,230.4a16.8,16.8,0,0,1,23.7,0l52.5,52.5,113.6-118a16.6,16.6,0,0,1,23.6,0l23.7,23.6A17.1,17.1,0,0,1,379.2,212.3Z" transform="translate(0 0)"/></svg>